<svg xmlns="http://www.w3.org/2000/svg" viewBox="0 0 200 170" width="200" height="170">
  <ellipse cx="100" cy="156" rx="66" ry="12" fill="#35315F" opacity="0.08"></ellipse>
  <path d="M62 52 Q42 44 40 84 Q40 104 56 98 Q62 78 64 56 Z" fill="#C89A6B" stroke="#35315F" stroke-width="4" stroke-linejoin="round"></path><path d="M138 52 Q158 44 160 84 Q160 104 144 98 Q138 78 136 56 Z" fill="#C89A6B" stroke="#35315F" stroke-width="4" stroke-linejoin="round"></path>
  <ellipse cx="100" cy="98" rx="58" ry="56" fill="#C89A6B" stroke="#35315F" stroke-width="5"></ellipse>
  <ellipse cx="42" cy="112" rx="12" ry="9" fill="#C89A6B" stroke="#35315F" stroke-width="5"></ellipse>
  <ellipse cx="158" cy="112" rx="12" ry="9" fill="#C89A6B" stroke="#35315F" stroke-width="5"></ellipse>
  <circle cx="82" cy="88" r="6.5" fill="#35315F"></circle>
  <circle cx="118" cy="88" r="6.5" fill="#35315F"></circle>
  <circle cx="84" cy="86" r="2.2" fill="#FFFFFF"></circle>
  <circle cx="120" cy="86" r="2.2" fill="#FFFFFF"></circle>
  <ellipse cx="68" cy="106" rx="8" ry="5.5" fill="#F2A3B3" opacity="0.8"></ellipse>
  <ellipse cx="132" cy="106" rx="8" ry="5.5" fill="#F2A3B3" opacity="0.8"></ellipse>
  <path d="M88 106 Q100 120 112 106" fill="none" stroke="#35315F" stroke-width="4" stroke-linecap="round"></path>
  <ellipse cx="100" cy="100" rx="6" ry="5" fill="#35315F"></ellipse>
</svg>