<svg xmlns="http://www.w3.org/2000/svg" viewBox="0 0 200 170" width="200" height="170">
  <ellipse cx="100" cy="158" rx="68" ry="12" fill="#35315F" opacity="0.08"></ellipse>
  <path d="M100 22 l5 11 12 1.5 -9 8.5 2.5 12 -10.5 -6 -10.5 6 2.5 -12 -9 -8.5 12 -1.5 Z" fill="#FFB93E" stroke="#35315F" stroke-width="4" stroke-linejoin="round"></path>
  <path d="M60 56 Q40 48 38 88 Q38 108 54 102 Q60 82 62 60 Z" fill="#C89A6B" stroke="#35315F" stroke-width="4" stroke-linejoin="round"></path><path d="M140 56 Q160 48 162 88 Q162 108 146 102 Q140 82 138 60 Z" fill="#C89A6B" stroke="#35315F" stroke-width="4" stroke-linejoin="round"></path>
  <ellipse cx="100" cy="102" rx="60" ry="56" fill="#C89A6B" stroke="#35315F" stroke-width="5"></ellipse>
  <ellipse cx="40" cy="116" rx="12" ry="9" fill="#C89A6B" stroke="#35315F" stroke-width="5"></ellipse>
  <ellipse cx="160" cy="116" rx="12" ry="9" fill="#C89A6B" stroke="#35315F" stroke-width="5"></ellipse>
  <path d="M76 90 Q82 84 88 90" fill="none" stroke="#35315F" stroke-width="5" stroke-linecap="round"></path>
  <path d="M112 90 Q118 84 124 90" fill="none" stroke="#35315F" stroke-width="5" stroke-linecap="round"></path>
  <ellipse cx="66" cy="108" rx="8" ry="5.5" fill="#F2A3B3" opacity="0.8"></ellipse>
  <ellipse cx="134" cy="108" rx="8" ry="5.5" fill="#F2A3B3" opacity="0.8"></ellipse>
  <path d="M86 108 Q100 124 114 108" fill="none" stroke="#35315F" stroke-width="4" stroke-linecap="round"></path>
  <ellipse cx="100" cy="102" rx="6" ry="5" fill="#35315F"></ellipse>
  <circle cx="34" cy="70" r="3" fill="#FFB93E"></circle>
  <circle cx="168" cy="66" r="3" fill="#FFB93E"></circle>
  <circle cx="152" cy="150" r="3" fill="#FFB93E"></circle>
</svg>