<svg xmlns="http://www.w3.org/2000/svg" viewBox="0 0 200 170" width="200" height="170">
  <ellipse cx="100" cy="156" rx="66" ry="12" fill="#35315F" opacity="0.08"></ellipse>
  <path d="M64 56 L50 28 L82 46 Z" fill="#A98F72" stroke="#35315F" stroke-width="4" stroke-linejoin="round"></path><path d="M136 56 L150 28 L118 46 Z" fill="#A98F72" stroke="#35315F" stroke-width="4" stroke-linejoin="round"></path>
  <ellipse cx="100" cy="98" rx="58" ry="56" fill="#A98F72" stroke="#35315F" stroke-width="5"></ellipse>
  <ellipse cx="42" cy="112" rx="12" ry="9" fill="#A98F72" stroke="#35315F" stroke-width="5"></ellipse>
  <ellipse cx="158" cy="112" rx="12" ry="9" fill="#A98F72" stroke="#35315F" stroke-width="5"></ellipse>
  <circle cx="82" cy="88" r="6.5" fill="#35315F"></circle>
  <circle cx="118" cy="88" r="6.5" fill="#35315F"></circle>
  <circle cx="84" cy="86" r="2.2" fill="#FFFFFF"></circle>
  <circle cx="120" cy="86" r="2.2" fill="#FFFFFF"></circle>
  <ellipse cx="68" cy="106" rx="8" ry="5.5" fill="#F2A3B3" opacity="0.8"></ellipse>
  <ellipse cx="132" cy="106" rx="8" ry="5.5" fill="#F2A3B3" opacity="0.8"></ellipse>
  <path d="M88 106 Q100 120 112 106" fill="none" stroke="#35315F" stroke-width="4" stroke-linecap="round"></path>
  <path d="M90 100 L110 100 L100 116 Z" fill="#E8A23D" stroke="#35315F" stroke-width="3" stroke-linejoin="round"></path>
</svg>